<?xml version="1.0" encoding="UTF-8"?>
<svg version="1.1" xmlns="http://www.w3.org/2000/svg" width="1536" height="1024">
<path d="M0 0 C506.88 0 1013.76 0 1536 0 C1536 337.92 1536 675.84 1536 1024 C1029.12 1024 522.24 1024 0 1024 C0 686.08 0 348.16 0 0 Z " fill="#070608" transform="translate(0,0)"/>
<path d="M0 0 C1.61799112 0.00052017 3.23598288 -0.00000358 4.85397339 -0.00151062 C8.22419831 -0.00142153 11.5941809 0.00888023 14.96435547 0.02709961 C19.25881104 0.04982106 23.5529148 0.05031732 27.84741402 0.04358196 C31.18137679 0.04022284 34.51526102 0.04690787 37.84920883 0.0567112 C39.43185896 0.06052729 41.01451787 0.06172653 42.59717178 0.06012535 C68.50115466 0.05574051 68.50115466 0.05574051 77.203125 8.51171875 C79.47111248 12.12663329 79.44519164 15.06404908 79.2421875 19.17578125 C79.1596875 21.54765625 79.0771875 23.91953125 78.9921875 26.36328125 C72.0621875 26.36328125 65.1321875 26.36328125 57.9921875 26.36328125 C57.0021875 22.89828125 57.0021875 22.89828125 55.9921875 19.36328125 C54.15011511 17.52120886 51.16883729 18.20663925 48.69995117 18.1862793 C48.04298752 18.1797081 47.38602386 18.1731369 46.70915222 18.16636658 C44.52615252 18.14659049 42.34322178 18.13496083 40.16015625 18.125 C39.41585169 18.12092447 38.67154713 18.11684895 37.90468788 18.11264992 C33.9643748 18.09176961 30.02409673 18.07747711 26.08374023 18.06811523 C22.01131277 18.05705354 17.93943217 18.02266276 13.86719799 17.98294353 C10.73849974 17.95680644 7.60993224 17.94842598 4.48113441 17.94483376 C2.98000716 17.93995928 1.47888608 17.92832071 -0.02213478 17.90979576 C-2.12432828 17.88546678 -4.22510163 17.88635689 -6.32739258 17.89331055 C-8.12156364 17.88451118 -8.12156364 17.88451118 -9.95198059 17.87553406 C-13.61132308 18.45960873 -14.75571746 19.48643651 -17.0078125 22.36328125 C-18.56868274 26.07401965 -18.16972206 30.26368563 -18.17578125 34.234375 C-18.17910965 34.99371841 -18.18243805 35.75306183 -18.18586731 36.53541565 C-18.19091999 38.138269 -18.19327615 39.74113283 -18.19311523 41.34399414 C-18.19530174 43.7887513 -18.2134747 46.23305697 -18.23242188 48.67773438 C-18.23535619 50.23827971 -18.23734073 51.79882719 -18.23828125 53.359375 C-18.24546677 54.08660263 -18.25265228 54.81383026 -18.26005554 55.56309509 C-18.24208371 59.57869721 -18.04840196 62.85424153 -16.0078125 66.36328125 C-12.58850156 68.64524378 -9.58405073 68.61650062 -5.54272461 68.62207031 C-4.23134018 68.62837463 -2.91995575 68.63467896 -1.5688324 68.64117432 C-0.14093898 68.6375948 1.28695321 68.63349291 2.71484375 68.62890625 C4.18167688 68.63025386 5.64850958 68.63219519 7.11534119 68.63470459 C10.18606834 68.63765042 13.25667898 68.63337505 16.32739258 68.62402344 C20.26403843 68.61261907 24.20041186 68.61919788 28.13704777 68.63116837 C31.16448523 68.63839303 34.19185801 68.63609644 37.21929741 68.63091278 C38.67097442 68.62957848 40.12265731 68.63121632 41.57432747 68.63587189 C43.60171522 68.64094788 45.62912357 68.63184013 47.65649414 68.62207031 C48.8102504 68.62047913 49.96400665 68.61888794 51.15272522 68.61724854 C54.19538892 68.57330329 54.19538892 68.57330329 56.9921875 66.36328125 C58.52661261 62.14173814 58.52661261 62.14173814 58.9921875 52.36328125 C45.7921875 52.36328125 32.5921875 52.36328125 18.9921875 52.36328125 C18.9921875 47.41328125 18.9921875 42.46328125 18.9921875 37.36328125 C39.4521875 37.36328125 59.9121875 37.36328125 80.9921875 37.36328125 C80.9921875 72.53172475 80.9921875 72.53172475 76.16015625 78.703125 C65.08273866 87.6393455 52.33538415 86.52467979 38.71484375 86.53125 C37.1374051 86.53447015 35.55996674 86.53783477 33.98252869 86.54133606 C30.68862211 86.5472964 27.39474166 86.54917907 24.10083008 86.54858398 C19.90384856 86.54848234 15.70703612 86.56215086 11.51009464 86.57935619 C8.25592801 86.59053357 5.00180158 86.59250147 1.74761772 86.59197426 C0.20124159 86.59314511 -1.34513589 86.59751589 -2.89149284 86.60530663 C-26.71735977 86.71414934 -26.71735977 86.71414934 -35.0078125 79.36328125 C-39.17442594 74.14983209 -41.10230992 69.42391991 -41.18481445 62.75341797 C-41.19764969 61.84502167 -41.21048492 60.93662537 -41.22370911 60.0007019 C-41.23109604 59.02464996 -41.23848297 58.04859802 -41.24609375 57.04296875 C-41.2541655 56.02913116 -41.26223724 55.01529358 -41.27055359 53.97073364 C-41.28437713 51.82393087 -41.29510701 49.67710628 -41.30297852 47.53027344 C-41.31447829 45.34628816 -41.33489811 43.16233054 -41.36450195 40.97851562 C-41.40741166 37.81230692 -41.42338197 34.64693305 -41.43359375 31.48046875 C-41.45110184 30.51656219 -41.46860992 29.55265564 -41.48664856 28.55953979 C-41.46313924 21.1078539 -40.0710562 14.29649372 -35.40205383 8.30148315 C-26.02817892 -0.98064722 -12.30144162 -0.07905579 0 0 Z " fill="#C5C4C4" transform="translate(821.0078125,450.63671875)"/>
<path d="M0 0 C35.64 0 71.28 0 108 0 C108 5.61 108 11.22 108 17 C79.62 17 51.24 17 22 17 C22 22.94 22 28.88 22 35 C48.07 35 74.14 35 101 35 C101 39.95 101 44.9 101 50 C74.93 50 48.86 50 22 50 C22 56.27 22 62.54 22 69 C50.71 69 79.42 69 109 69 C109 74.61 109 80.22 109 86 C73.03 86 37.06 86 0 86 C0 57.62 0 29.24 0 0 Z " fill="#C7C7C6" transform="translate(922,451)"/>
<path d="M0 0 C24.06597341 0 24.06597341 0 31.625 7.125 C33.37457493 8.60750945 35.12591444 10.08793866 36.87890625 11.56640625 C37.73242676 12.31422363 38.58594727 13.06204102 39.46533203 13.83251953 C43.33315523 17.14002621 47.4335784 20.09257394 51.5625 23.0625 C53.12638785 24.2064384 54.68888566 25.35227953 56.25 26.5 C57.02730469 27.07105469 57.80460937 27.64210938 58.60546875 28.23046875 C62.77815912 31.31403928 66.91832926 34.44077138 71.0625 37.5625 C86.31952996 49.07672897 86.31952996 49.07672897 102 60 C102 40.2 102 20.4 102 0 C109.26 0 116.52 0 124 0 C124 28.38 124 56.76 124 86 C98.76868327 86 98.76868327 86 91 78.625 C89.25128471 77.1365102 87.50128529 75.6495277 85.75 74.1640625 C84.52603516 73.0797998 84.52603516 73.0797998 83.27734375 71.97363281 C80.32748235 69.4171706 77.22221854 67.1947746 74 65 C67.10025342 60.17142886 60.44650564 55.0261005 53.76464844 49.90258789 C47.66565476 45.23744523 41.49714307 40.70633714 35.203125 36.30859375 C31.05271112 33.31725887 27.03836943 30.140954 23 27 C22.67 46.47 22.34 65.94 22 86 C14.74 86 7.48 86 0 86 C0 57.62 0 29.24 0 0 Z " fill="#D3D3D2" transform="translate(363,451)"/>
<path d="M0 0 C23.35060956 0 23.35060956 0 28.27905273 4.265625 C28.88821533 4.87921875 29.49737793 5.4928125 30.125 6.125 C31.5947992 7.42251444 33.0675553 8.71668564 34.54296875 10.0078125 C35.27306152 10.67329102 36.0031543 11.33876953 36.75537109 12.02441406 C40.45524668 15.28081968 44.44123249 18.12175536 48.4375 21 C50.02805336 22.16439588 51.61789591 23.32976334 53.20703125 24.49609375 C54.80466927 25.66408743 56.40232557 26.83205611 58 28 C61.21053148 30.3511829 64.41878637 32.70543253 67.625 35.0625 C68.79409912 35.92174072 68.79409912 35.92174072 69.98681641 36.79833984 C76.18343142 41.36677911 82.30934757 46.02337815 88.39501953 50.73852539 C89.0445459 51.23989014 89.69407227 51.74125488 90.36328125 52.2578125 C90.92313721 52.6923877 91.48299316 53.12696289 92.05981445 53.57470703 C94.64320935 55.47251242 97.33281551 57.22187701 100 59 C100.33 39.53 100.66 20.06 101 0 C108.26 0 115.52 0 123 0 C123 28.38 123 56.76 123 86 C98.91084976 86 98.91084976 86 92.1875 79.75 C90.61994798 78.45423796 89.05223705 77.15866815 87.484375 75.86328125 C86.73220703 75.21053223 85.98003906 74.5577832 85.20507812 73.88525391 C81.90666836 71.06524503 78.43017981 68.50947711 74.9375 65.9375 C73.63238495 64.9562976 72.3276994 63.97452367 71.0234375 62.9921875 C66.74360095 59.79232942 62.40457689 56.67708367 58.0625 53.5625 C46.14367033 45.00549049 34.58109455 36.00751799 23 27 C22.67 46.47 22.34 65.94 22 86 C14.74 86 7.48 86 0 86 C0 57.62 0 29.24 0 0 Z " fill="#C0BFBF" transform="translate(1050,451)"/>
<path d="M0 0 C31.20119062 -2.18817917 31.20119062 -2.18817917 38.80078125 3.93701172 C40.92008188 6.0417706 42.89757346 8.20578233 44.76806641 10.53466797 C46.4838098 12.57547095 48.47231032 14.06589665 50.625 15.625 C53.18843701 17.55477842 55.64325429 19.54793741 58.0390625 21.6796875 C58.57063965 22.14552246 59.1022168 22.61135742 59.64990234 23.09130859 C61.17700127 24.4357335 62.69043684 25.79563102 64.203125 27.15625 C66.77394922 29.17770866 66.77394922 29.17770866 69.37109375 29.171875 C73.41241166 27.37039599 76.47318096 24.61672372 79.8125 21.75 C80.56966309 21.13044434 81.32682617 20.51088867 82.10693359 19.87255859 C85.82720238 16.81149941 89.32552703 13.73340869 92.58203125 10.1796875 C99.46120998 3.06504502 105.07157063 0.40345565 115.02737427 0.13372803 C122.03211602 0.07819408 129.01850736 0.44429528 136 1 C127.32698552 9.74217292 117.77928584 17.25798099 107.90014648 24.57055664 C100.24040366 30.26126166 92.66424587 36.14890611 86 43 C87.42210502 44.11736823 88.84421688 45.23472776 90.26635742 46.35205078 C91.52184111 47.33856115 92.77720932 48.3252185 94.0324707 49.31201172 C97.23907025 51.8324795 100.44718388 54.35094077 103.66015625 56.86328125 C109.87164687 61.7241875 116.0290105 66.63604454 122.11328125 71.65625 C126.21832748 74.98916981 130.39270081 78.23276804 134.58203125 81.45898438 C136.07240822 82.61686693 137.5388324 83.80546882 139 85 C139 85.33 139 85.66 139 86 C107.79828863 88.18821569 107.79828863 88.18821569 100.19970703 82.06323242 C97.61716169 79.49878723 95.30842073 76.8170558 93 74 C90.74953591 72.03816794 90.74953591 72.03816794 88.5 70.4375 C84.4502593 67.34832398 80.43977555 64.21279114 76.4375 61.0625 C75.20705195 60.09502576 73.97658488 59.1275757 72.74609375 58.16015625 C71.83988281 57.44730469 70.93367187 56.73445313 70 56 C66.01385325 57.71394516 62.79834402 60.37519843 59.4375 63.0625 C58.5098584 63.79786987 58.5098584 63.79786987 57.56347656 64.5480957 C52.96931602 68.19963675 48.41492334 71.89892923 43.890625 75.63671875 C42.93671875 76.41660156 41.9828125 77.19648437 41 78 C40.34467285 78.67047363 39.6893457 79.34094727 39.01416016 80.03173828 C33.37543943 85.36145569 28.774273 86.82892767 21.18310547 86.76350403 C19.07847893 86.70245542 16.97797967 86.60239589 14.875 86.5 C13.42718286 86.45978286 11.97925706 86.42329664 10.53125 86.390625 C7.01853795 86.3033603 3.50998419 86.16583607 0 86 C0 85.34 0 84.68 0 84 C2.02582027 82.250566 4.05947786 80.61718577 6.1875 79 C7.13991577 78.26414673 7.13991577 78.26414673 8.11157227 77.51342773 C10.0696309 76.00264755 12.03401028 74.50043936 14 73 C16.14674724 71.35535446 18.29210185 69.70890629 20.4375 68.0625 C20.962229 67.66111816 21.48695801 67.25973633 22.02758789 66.84619141 C26.27779139 63.58489982 30.45455684 60.23739344 34.625 56.875 C40.61501106 52.04859948 46.7167145 47.44140763 53 43 C49.36575389 39.08108709 45.1948639 36.00902328 40.9375 32.8125 C36.09152953 29.14565111 31.2843953 25.46611937 26.625 21.5625 C21.5396945 17.3444559 16.25430076 13.41870835 10.9375 9.5 C10.09074707 8.87552979 9.24399414 8.25105957 8.37158203 7.60766602 C4.33699724 4.56113571 4.33699724 4.56113571 0 2 C0 1.34 0 0.68 0 0 Z " fill="#D4D4D3" transform="translate(503,451)"/>
<path d="M0 0 C38.61 0 77.22 0 117 0 C116.67 5.94 116.34 11.88 116 18 C100.49 18 84.98 18 69 18 C69 40.44 69 62.88 69 86 C61.74 86 54.48 86 47 86 C47 63.56 47 41.12 47 18 C31.49 18 15.98 18 0 18 C0 12.06 0 6.12 0 0 Z " fill="#D9D9D9" transform="translate(651,451)"/>
<path d="M0 0 C0.33 0 0.66 0 1 0 C2.04407196 13.72208856 2 27.17767881 2 41 C36.65 41 71.3 41 107 41 C107 36.71 107 32.42 107 28 C79.28 28 51.56 28 23 28 C22.67 27.34 22.34 26.68 22 26 C50.71 26 79.42 26 109 26 C109 31.61 109 37.22 109 43 C73.03 43 37.06 43 0 43 C0 28.81 0 14.62 0 0 Z " fill="#8C8C8B" transform="translate(922,494)"/>
<path d="M0 0 C0.33 0 0.66 0 1 0 C1 13.86 1 27.72 1 42 C-6.26 42 -13.52 42 -21 42 C-21 33.75 -21 25.5 -21 17 C-20.67 17 -20.34 17 -20 17 C-19.67 24.26 -19.34 31.52 -19 39 C-13.06 39.33 -7.12 39.66 -1 40 C-1.01160156 38.20175781 -1.02320313 36.40351562 -1.03515625 34.55078125 C-1.04454442 32.13802188 -1.05364351 29.72526138 -1.0625 27.3125 C-1.07087891 26.13365234 -1.07925781 24.95480469 -1.08789062 23.74023438 C-1.10970358 15.77850456 -0.73348042 7.92770775 0 0 Z " fill="#888888" transform="translate(1071,495)"/>
<path d="M0 0 C0.81484863 -0.00209473 1.62969727 -0.00418945 2.46923828 -0.00634766 C3.77997314 0.00066162 3.77997314 0.00066162 5.1171875 0.0078125 C6.00776855 0.01119629 6.89834961 0.01458008 7.81591797 0.01806641 C31.05560265 0.19622765 31.05560265 0.19622765 33.9921875 3.1328125 C20.7921875 3.1328125 7.5921875 3.1328125 -6.0078125 3.1328125 C-6.0078125 2.4728125 -6.0078125 1.8128125 -6.0078125 1.1328125 C-3.74602044 0.00191647 -2.50911341 0.00390046 0 0 Z " fill="#9C9B9B" transform="translate(846.0078125,499.8671875)"/>
<path d="M0 0 C1.16945792 0.80847729 2.33550461 1.62189112 3.5 2.4375 C4.1496875 2.88996094 4.799375 3.34242188 5.46875 3.80859375 C5.9740625 4.20175781 6.479375 4.59492187 7 5 C7 5.33 7 5.66 7 6 C-3.56 6 -14.12 6 -25 6 C-25.33 5.34 -25.66 4.68 -26 4 C-17.09 3.67 -8.18 3.34 1 3 C0.67 2.01 0.34 1.02 0 0 Z " fill="#A3A2A1" transform="translate(635,531)"/>
<path d="M0 0 C0.33 0.66 0.66 1.32 1 2 C10.24 2 19.48 2 29 2 C28.34 2.99 27.68 3.98 27 5 C23.92724609 5.34057617 23.92724609 5.34057617 20.0234375 5.29296875 C19.33819 5.28872391 18.6529425 5.28447906 17.94692993 5.28010559 C15.75588871 5.26329753 13.56576368 5.22564405 11.375 5.1875 C9.89063827 5.17245579 8.40626215 5.15876693 6.921875 5.14648438 C3.28095167 5.1133879 -0.35943478 5.06159207 -4 5 C-4 4.34 -4 3.68 -4 3 C-2 1.375 -2 1.375 0 0 Z " fill="#9D9C9C" transform="translate(507,532)"/>
</svg>
